<?xml version="1.0" encoding="UTF-8" standalone="no"?>
<!-- Generator: Adobe Illustrator 21.0.0, SVG Export Plug-In . SVG Version: 6.00 Build 0)  -->

<svg
   xmlns:dc="http://purl.org/dc/elements/1.1/"
   xmlns:cc="http://creativecommons.org/ns#"
   xmlns:rdf="http://www.w3.org/1999/02/22-rdf-syntax-ns#"
   xmlns:svg="http://www.w3.org/2000/svg"
   xmlns="http://www.w3.org/2000/svg"
   xmlns:sodipodi="http://sodipodi.sourceforge.net/DTD/sodipodi-0.dtd"
   xmlns:inkscape="http://www.inkscape.org/namespaces/inkscape"
   version="1.1"
   id="Layer_1"
   x="0px"
   y="0px"
   viewBox="0 0 128 128"
   xml:space="preserve"
   inkscape:version="0.91 r13725"
   sodipodi:docname="logo-color.svg"
   width="128"
   height="128"><metadata
     id="metadata29"><rdf:RDF><cc:Work
         rdf:about=""><dc:format>image/svg+xml</dc:format><dc:type
           rdf:resource="http://purl.org/dc/dcmitype/StillImage" /><dc:title></dc:title></cc:Work></rdf:RDF></metadata><defs
     id="defs27" /><sodipodi:namedview
     pagecolor="#ffffff"
     bordercolor="#666666"
     borderopacity="1"
     objecttolerance="10"
     gridtolerance="10"
     guidetolerance="10"
     inkscape:pageopacity="0"
     inkscape:pageshadow="2"
     inkscape:window-width="1920"
     inkscape:window-height="1017"
     id="namedview25"
     showgrid="false"
     inkscape:zoom="2.0068364"
     inkscape:cx="86.373068"
     inkscape:cy="14.571692"
     inkscape:window-x="0"
     inkscape:window-y="30"
     inkscape:window-maximized="1"
     inkscape:current-layer="Layer_1" /><style
     type="text/css"
     id="style3">
	.st0{fill:#3700AD;}
	.st1{fill:#172B4D;}
</style><g
     id="g17"
     transform="translate(14.05,-0.38038476)"><path
       style="fill:#172b4d"
       inkscape:connector-curvature="0"
       id="path19"
       d="m 78.9,41.2 c 0.1,2.5 -1.3,4.8 -3.6,5.9 l -26.2,13 -3.1,1.6 c -0.2,0.1 -0.4,-0.1 -0.4,-0.3 l 0,0 C 46,59.8 45.2,58.2 43.8,57.5 l -16.1,-7.9 -9,-4.4 C 14,42.9 11,38.1 11,32.8 L 11,5 c 0,-0.2 0.2,-0.3 0.4,-0.2 l 62.7,31 c 0.8,0.4 1.6,0.9 2.4,1.4 1.5,0.8 2.3,2.4 2.4,4 l 0,0 z"
       class="st1" /><g
       id="g21"><path
         style="fill:#3700ad"
         inkscape:connector-curvature="0"
         id="path23"
         d="m 89,56.8 0,6.4 c 0,5.3 -1.5,10.3 -4.3,14.6 -2.6,4.1 -6.3,7.4 -10.8,9.7 l -50,24.7 c -4.5,2.2 -7.9,6 -9.7,10.7 -0.3,0.8 -0.9,1.1 -1.6,1.1 -0.9,0 -1.7,-0.6 -1.7,-1.7 l 0,-32 c 0,-5.2 2.9,-9.9 7.5,-12.1 l 9.3,-4.6 24.3,-12 4.2,-2.1 20.3,-10 c 3.2,-1.6 5.1,-4.8 5,-8.3 0,0 0,0 0,0 1.3,1.3 2.4,2.7 3.3,4.2 2.3,3.4 3.7,7.3 4.2,11.4 z"
         class="st0" /></g></g></svg>