<?xml version="1.0" encoding="UTF-8" standalone="no"?>
<!-- Generator: Adobe Illustrator 21.0.0, SVG Export Plug-In . SVG Version: 6.00 Build 0)  -->

<svg
   xmlns:dc="http://purl.org/dc/elements/1.1/"
   xmlns:cc="http://creativecommons.org/ns#"
   xmlns:rdf="http://www.w3.org/1999/02/22-rdf-syntax-ns#"
   xmlns:svg="http://www.w3.org/2000/svg"
   xmlns="http://www.w3.org/2000/svg"
   xmlns:sodipodi="http://sodipodi.sourceforge.net/DTD/sodipodi-0.dtd"
   xmlns:inkscape="http://www.inkscape.org/namespaces/inkscape"
   version="1.1"
   id="Layer_1"
   x="0px"
   y="0px"
   viewBox="0 0 420 128"
   style="enable-background:new 0 0 420 128;"
   xml:space="preserve"
   sodipodi:docname="logo-color-long.svg"
   inkscape:version="0.92.4 (5da689c313, 2019-01-14)"><metadata
   id="metadata29"><rdf:RDF><cc:Work
       rdf:about=""><dc:format>image/svg+xml</dc:format><dc:type
         rdf:resource="http://purl.org/dc/dcmitype/StillImage" /></cc:Work></rdf:RDF></metadata><defs
   id="defs27">
	
	

		
		
	</defs><sodipodi:namedview
   pagecolor="#ffffff"
   bordercolor="#666666"
   borderopacity="1"
   objecttolerance="10"
   gridtolerance="10"
   guidetolerance="10"
   inkscape:pageopacity="0"
   inkscape:pageshadow="2"
   inkscape:window-width="1920"
   inkscape:window-height="1016"
   id="namedview25"
   showgrid="false"
   inkscape:zoom="0.82857143"
   inkscape:cx="75.431034"
   inkscape:cy="64"
   inkscape:window-x="0"
   inkscape:window-y="27"
   inkscape:window-maximized="1"
   inkscape:current-layer="Layer_1" />
<style
   type="text/css"
   id="style2">
	.st0{fill:#3700AD;}
	.st1{fill:#172B4D;}
</style>
<g
   id="g4573"><g
     style="fill:#3700ad;fill-opacity:1"
     id="g12">
		<path
   class="st0"
   d="m 152.5,10 c -15.6,0 -33.6,6.4 -44.4,18.8 L 118.2,42 c 10.9,-10.1 22.6,-15.5 34.3,-15.5 13.3,0 24.1,10.8 24.1,24.1 0,13.3 -10.8,24.1 -24.1,24.1 -1.1,0 -2.2,-0.1 -3.3,-0.2 V 42.8 h -17.1 v 20.6 22.3 14.6 c 0,2.1 -1.7,3.9 -3.9,3.9 h -1.6 v 5.4 h 5.4 17.1 V 104.2 91 c 1.1,0.1 2.2,0.1 3.3,0.1 22.4,0 40.5,-18.1 40.5,-40.5 0,-22.4 -18,-40.6 -40.4,-40.6 z"
   id="path4"
   inkscape:connector-curvature="0"
   style="fill:#3700ad;fill-opacity:1" />
		<path
   class="st0"
   d="m 373.2,83.6 c -3.3,1.2 -6.8,-1.2 -6.8,-4.7 V 33.5 28.1 h -17.1 -5.4 v 5.4 h 1.6 c 2.1,0 3.9,1.7 3.9,3.9 v 36.5 c 0,0.7 0.1,1.3 0.2,1.9 -2.3,3.1 -5.1,6.4 -8.9,7.9 -3.3,1.2 -6.8,-1.2 -6.8,-4.7 V 5.6 H 311.4 V 11 h 1.6 c 2.1,0 3.9,1.7 3.9,3.9 v 17 c -4.2,-2.4 -8.9,-3.8 -14,-3.8 -16.3,0 -29.5,14.2 -29.5,31.8 0,5.8 1.5,11.3 4,16 -2.2,3.1 -5.1,6.3 -8.8,7.7 -3.3,1.2 -6.8,-1.2 -6.8,-4.7 V 28.1 h -17.1 v 3.8 c -4.2,-2.4 -8.9,-3.8 -14,-3.8 -16.3,0 -29.5,14.2 -29.5,31.8 0,17.6 13.2,31.8 29.5,31.8 6.8,0 13.1,-2.5 18.1,-6.7 3.1,3.6 7.8,5.9 12.9,5.9 6.6,0 14.6,-6.1 16.6,-13.4 5.3,8.5 14.3,14.1 24.5,14.1 6.8,0 13.1,-2.5 18.1,-6.7 3.1,3.6 7.8,5.9 12.9,5.9 6.3,0 13.8,-5.5 16.3,-12.3 2.1,7.1 8.5,12.3 16.3,12.3 7.8,0 17.3,-8.3 17.1,-17.1 -2.4,3.7 -5.7,8.2 -10.3,9.9 z M 218,63.5 v -8 c 0,-8.3 6.7,-15 15,-15 4.7,0 8.9,2.1 11.6,5.5 v 27 c -2.8,3.4 -6.9,5.5 -11.6,5.5 -8.3,0 -15,-6.7 -15,-15 z m 72.1,0 v -8 c 0,-8.3 6.7,-15 15,-15 4.7,0 8.9,2.1 11.6,5.5 v 27 c -2.8,3.4 -6.9,5.5 -11.6,5.5 -8.3,0 -15,-6.7 -15,-15 z"
   id="path6"
   inkscape:connector-curvature="0"
   style="fill:#3700ad;fill-opacity:1" />
		<circle
   class="st0"
   cx="357.89999"
   cy="14.1"
   r="10.1"
   id="circle8"
   style="fill:#3700ad;fill-opacity:1" />
		<circle
   class="st0"
   cx="399"
   cy="80.800003"
   r="10.1"
   id="circle10"
   style="fill:#3700ad;fill-opacity:1" />
	</g><path
     style="fill:#172b4d"
     inkscape:connector-curvature="0"
     id="path14"
     d="m 78.9,41.2 c 0.1,2.5 -1.3,4.8 -3.6,5.9 l -26.2,13 -3.1,1.6 c -0.2,0.1 -0.4,-0.1 -0.4,-0.3 v 0 C 46,59.8 45.2,58.2 43.8,57.5 l -16.1,-7.9 -9,-4.4 C 14,42.9 11,38.1 11,32.8 V 5 c 0,-0.2 0.2,-0.3 0.4,-0.2 l 62.7,31 c 0.8,0.4 1.6,0.9 2.4,1.4 1.5,0.8 2.3,2.4 2.4,4 z"
     class="st1" /><g
     style="fill:#3700ad;fill-opacity:1"
     id="g18">
			<path
   style="fill:#3700ad;fill-opacity:1"
   inkscape:connector-curvature="0"
   id="path16"
   d="m 89,56.8 v 6.4 c 0,5.3 -1.5,10.3 -4.3,14.6 -2.6,4.1 -6.3,7.4 -10.8,9.7 l -50,24.7 c -4.5,2.2 -7.9,6 -9.7,10.7 -0.3,0.8 -0.9,1.1 -1.6,1.1 -0.9,0 -1.7,-0.6 -1.7,-1.7 v -32 c 0,-5.2 2.9,-9.9 7.5,-12.1 l 9.3,-4.6 24.3,-12 4.2,-2.1 20.3,-10 c 3.2,-1.6 5.1,-4.8 5,-8.3 0,0 0,0 0,0 1.3,1.3 2.4,2.7 3.3,4.2 2.3,3.4 3.7,7.3 4.2,11.4 z"
   class="st0" />
		</g></g>
<style
   id="style3"
   type="text/css">
	.st0{fill:#3700AD;}
	.st1{fill:#172B4D;}
</style></svg>